<?xml version="1.0"?>
<svg xmlns="http://www.w3.org/2000/svg" xmlns:xlink="http://www.w3.org/1999/xlink" xmlns:svgjs="http://svgjs.com/svgjs" version="1.1" width="512" height="512" x="0" y="0" viewBox="0 0 24 24" style="enable-background:new 0 0 512 512" xml:space="preserve" class=""><g><g xmlns="http://www.w3.org/2000/svg"><path d="m14.25 20.25h-11.5c-1.105 0-2-.895-2-2v-15.5c0-1.105.895-2 2-2h11.5c1.105 0 2 .895 2 2v15.5c0 1.105-.895 2-2 2z" fill="#eceff1" data-original="#eceff1" style="" class=""/></g><g xmlns="http://www.w3.org/2000/svg"><path d="m23.11 21.8-5.29-8.59c-.17-.28-.47-.46-.82-.46s-.65.18-.82.46l-5.29 8.59c-.09.14-.14.31-.14.5 0 .52.43.95.96.95h10.58c.53 0 .96-.43.96-.95 0-.19-.05-.36-.14-.5z" fill="#ef5b25" data-original="#2196f3" style="" class=""/></g><g xmlns="http://www.w3.org/2000/svg"><path d="m22.288 24h-10.576c-.944 0-1.712-.765-1.712-1.704 0-.335.094-.651.272-.916l5.271-8.565c.295-.499.855-.815 1.457-.815s1.162.316 1.463.827l5.281 8.578c.162.24.256.556.256.891 0 .939-.768 1.704-1.712 1.704zm-5.288-10.5c-.088 0-.147.048-.172.089l-5.328 8.707c0 .11.097.204.212.204h10.576c.115 0 .212-.094.212-.204 0-.033-.006-.063-.017-.078l-5.305-8.616c-.031-.054-.09-.102-.178-.102z" fill="#383737" data-original="#000000" style="" class=""/></g><g xmlns="http://www.w3.org/2000/svg"><path d="m17 19.5c-.414 0-.75-.336-.75-.75v-2c0-.414.336-.75.75-.75s.75.336.75.75v2c0 .414-.336.75-.75.75z" fill="#383737" data-original="#000000" style="" class=""/></g><g xmlns="http://www.w3.org/2000/svg"><circle cx="17" cy="21.25" r=".75" fill="#383737" data-original="#000000" style="" class=""/></g><g xmlns="http://www.w3.org/2000/svg"><path d="m8.33 21h-5.58c-1.517 0-2.75-1.233-2.75-2.75v-15.5c0-1.517 1.233-2.75 2.75-2.75h11.5c1.517 0 2.75 1.233 2.75 2.75v7.08c0 .414-.336.75-.75.75s-.75-.336-.75-.75v-7.08c0-.689-.561-1.25-1.25-1.25h-11.5c-.689 0-1.25.561-1.25 1.25v15.5c0 .689.561 1.25 1.25 1.25h5.58c.414 0 .75.336.75.75s-.336.75-.75.75z" fill="#383737" data-original="#000000" style="" class=""/></g><g xmlns="http://www.w3.org/2000/svg"><path d="m13.25 9.5h-9.5c-.414 0-.75-.336-.75-.75s.336-.75.75-.75h9.5c.414 0 .75.336.75.75s-.336.75-.75.75z" fill="#383737" data-original="#000000" style="" class=""/></g><g xmlns="http://www.w3.org/2000/svg"><path d="m9.25 13.5h-5.5c-.414 0-.75-.336-.75-.75s.336-.75.75-.75h5.5c.414 0 .75.336.75.75s-.336.75-.75.75z" fill="#383737" data-original="#000000" style="" class=""/></g><g xmlns="http://www.w3.org/2000/svg"><path d="m8.25 5.5h-4.5c-.414 0-.75-.336-.75-.75s.336-.75.75-.75h4.5c.414 0 .75.336.75.75s-.336.75-.75.75z" fill="#383737" data-original="#000000" style="" class=""/></g></g></svg>
